<?xml version="1.0" encoding="utf-8"?>
<!-- Generator: Adobe Illustrator 15.1.0, SVG Export Plug-In . SVG Version: 6.00 Build 0)  -->
<!DOCTYPE svg PUBLIC "-//W3C//DTD SVG 1.0//EN" "http://www.w3.org/TR/2001/REC-SVG-20010904/DTD/svg10.dtd">
<svg version="1.0" id="レイヤー_1" xmlns="http://www.w3.org/2000/svg" xmlns:xlink="http://www.w3.org/1999/xlink" x="0px"
	 y="0px" width="344.01px" height="36.466px" viewBox="0 0 344.01 36.466" enable-background="new 0 0 344.01 36.466"
	 xml:space="preserve">
<path d="M288.273,27.422c-0.197,0.436-0.47,0.816-0.817,1.143c-0.349,0.326-0.755,0.582-1.22,0.766
	c-0.464,0.184-0.955,0.276-1.474,0.276s-1.01-0.093-1.474-0.276c-0.466-0.184-0.871-0.439-1.22-0.766s-0.62-0.707-0.817-1.143
	c-0.196-0.435-0.294-0.895-0.294-1.38V21.59h2.84v4.452c0,0.251,0.094,0.469,0.281,0.652c0.188,0.185,0.416,0.276,0.684,0.276
	c0.285,0,0.519-0.092,0.697-0.276c0.179-0.184,0.268-0.401,0.268-0.652V17.72l-4.77-4.919V9.593c0-0.484,0.098-0.944,0.294-1.38
	c0.197-0.436,0.469-0.816,0.817-1.143s0.754-0.581,1.22-0.766c0.464-0.184,0.955-0.276,1.474-0.276s1.01,0.093,1.474,0.276
	c0.465,0.185,0.871,0.439,1.22,0.766c0.348,0.326,0.62,0.707,0.817,1.143c0.196,0.436,0.295,0.896,0.295,1.38v2.34h-2.841v-2.34
	c0-0.25-0.094-0.468-0.281-0.652c-0.188-0.184-0.416-0.276-0.684-0.276c-0.286,0-0.519,0.093-0.697,0.276
	c-0.179,0.185-0.268,0.402-0.268,0.652v2.311l4.771,4.858v9.28C288.568,26.527,288.47,26.987,288.273,27.422z"/>
<path d="M240.312,6.724c0-0.167,0.137-0.303,0.305-0.303h4.146c2.913,0,4.344,1.604,4.344,4.549v14.088
	c0,2.944-1.431,4.549-4.344,4.549h-4.146c-0.168,0-0.305-0.136-0.305-0.303V6.724z M244.709,26.977c0.927,0,1.482-0.473,1.482-1.788
	V10.838c0-1.314-0.556-1.787-1.482-1.787h-1.179c-0.169,0-0.305,0.135-0.305,0.302v17.322c0,0.167,0.136,0.302,0.305,0.302H244.709z
	"/>
<path d="M299.263,6.421h2.305c0.168,0,0.304,0.136,0.304,0.303v22.58c0,0.167-0.136,0.303-0.304,0.303h-2.305
	c-0.168,0-0.305-0.136-0.305-0.303V6.724C298.958,6.557,299.095,6.421,299.263,6.421z"/>
<path d="M200.556,6.421h2.305c0.168,0,0.305,0.136,0.305,0.303v19.951c0,0.167,0.136,0.302,0.304,0.302h4.186
	c0.168,0,0.304,0.136,0.304,0.303v2.024c0,0.167-0.136,0.303-0.304,0.303h-7.099c-0.168,0-0.305-0.136-0.305-0.303V6.724
	C200.251,6.557,200.388,6.421,200.556,6.421z"/>
<path d="M335.177,6.421h3.114c0.14,0,0.261,0.094,0.295,0.228l2.775,10.789h0.054V6.724c0-0.167,0.136-0.303,0.304-0.303h1.987
	c0.168,0,0.304,0.136,0.304,0.303v22.58c0,0.167-0.136,0.303-0.304,0.303h-2.453c-0.139,0-0.26-0.094-0.295-0.227l-3.437-17.99
	h-0.054v17.914c0,0.167-0.136,0.303-0.304,0.303h-1.987c-0.168,0-0.304-0.136-0.304-0.303V6.724
	C334.873,6.557,335.009,6.421,335.177,6.421z"/>
<path d="M145.804,27.422c-0.197,0.436-0.47,0.816-0.817,1.143c-0.349,0.326-0.755,0.582-1.22,0.766
	c-0.464,0.184-0.955,0.276-1.474,0.276s-1.01-0.093-1.474-0.276c-0.466-0.184-0.871-0.439-1.22-0.766s-0.62-0.707-0.817-1.143
	c-0.196-0.435-0.294-0.895-0.294-1.38V21.59h2.84v4.452c0,0.251,0.094,0.469,0.281,0.652c0.188,0.185,0.416,0.276,0.684,0.276
	c0.285,0,0.519-0.092,0.697-0.276c0.179-0.184,0.268-0.401,0.268-0.652V17.72l-4.77-4.919V9.593c0-0.484,0.098-0.944,0.294-1.38
	c0.197-0.436,0.469-0.816,0.817-1.143s0.754-0.581,1.22-0.766c0.464-0.184,0.955-0.276,1.474-0.276s1.01,0.093,1.474,0.276
	c0.465,0.185,0.871,0.439,1.22,0.766c0.348,0.326,0.62,0.707,0.817,1.143c0.196,0.436,0.295,0.896,0.295,1.38v2.34h-2.841v-2.34
	c0-0.25-0.094-0.468-0.281-0.652c-0.188-0.184-0.416-0.276-0.684-0.276c-0.286,0-0.519,0.093-0.697,0.276
	c-0.179,0.185-0.268,0.402-0.268,0.652v2.311l4.771,4.858v9.28C146.099,26.527,146,26.987,145.804,27.422z"/>
<path d="M161.219,9.051h-2.438c-0.168,0-0.305-0.136-0.305-0.303V6.724c0-0.167,0.137-0.303,0.305-0.303h8.396
	c0.168,0,0.305,0.136,0.305,0.303v2.024c0,0.167-0.137,0.303-0.305,0.303h-2.437c-0.169,0-0.305,0.135-0.305,0.302v19.951
	c0,0.167-0.137,0.303-0.305,0.303h-2.305c-0.168,0-0.305-0.136-0.305-0.303V9.353C161.522,9.186,161.387,9.051,161.219,9.051z"/>
<path d="M120.242,9.051h-2.438c-0.168,0-0.305-0.136-0.305-0.303V6.724c0-0.167,0.137-0.303,0.305-0.303h8.396
	c0.168,0,0.305,0.136,0.305,0.303v2.024c0,0.167-0.137,0.303-0.305,0.303h-2.437c-0.169,0-0.305,0.135-0.305,0.302v19.951
	c0,0.167-0.137,0.303-0.305,0.303h-2.305c-0.168,0-0.305-0.136-0.305-0.303V9.353C120.546,9.186,120.41,9.051,120.242,9.051z"/>
<path d="M182.467,16.944l-3.375-10.126c-0.064-0.195,0.082-0.397,0.289-0.397h2.449c0.136,0,0.254,0.089,0.292,0.218l1.923,6.539
	h0.054l1.922-6.539c0.038-0.129,0.157-0.218,0.292-0.218h2.185c0.208,0,0.354,0.202,0.289,0.397l-3.375,10.126
	c-0.01,0.03-0.016,0.062-0.016,0.095v12.265c0,0.167-0.137,0.303-0.305,0.303h-2.304c-0.169,0-0.305-0.136-0.305-0.303V17.039
	C182.482,17.007,182.478,16.975,182.467,16.944z"/>
<path d="M321.508,10.929h2.146c0.169,0,0.305-0.135,0.305-0.302v-0.104c0-2.944-1.483-4.627-4.344-4.627s-4.344,1.683-4.344,5.145
	v0.806l-0.001-0.002v1.924c0,0.167-0.137,0.302-0.305,0.302h-0.423c-0.168,0-0.305,0.138-0.305,0.308v2.015
	c0,0.17,0.137,0.308,0.305,0.308h0.423c0.168,0,0.305,0.135,0.305,0.302v6.142l0.001,0.001v2.353c0,2.428,1.483,4.11,4.344,4.11
	s4.344-1.683,4.344-4.628V14.362c0-0.167-0.136-0.302-0.305-0.302h-3.602c-0.168,0-0.305,0.135-0.305,0.302v2.024
	c0,0.167,0.137,0.303,0.305,0.303h0.848c0.168,0,0.305,0.135,0.305,0.302v8.198c0,1.314-0.583,1.787-1.51,1.787
	c-0.928,0-1.51-0.473-1.51-0.709V11.417c0-2.393,0.582-2.893,1.51-2.893c0.927,0,1.51,0.5,1.51,1.814v0.288
	C321.204,10.794,321.34,10.929,321.508,10.929z"/>
<path d="M84.638,14.086h-0.423c-0.168,0-0.305-0.136-0.305-0.303v-0.846h-0.002v-2.415c0-2.944-1.562-4.627-4.423-4.627
	s-4.423,1.683-4.423,4.627v3.26c-0.002,0.166-0.137,0.299-0.304,0.299h-0.424c-0.168,0-0.304,0.138-0.304,0.308v2.015
	c0,0.17,0.136,0.307,0.304,0.307h0.424c0.167,0,0.302,0.134,0.304,0.299v7.97c0,2.945,1.562,4.628,4.423,4.628
	s4.423-1.683,4.423-4.628v-0.742h0.002v-7.22c0-0.167,0.137-0.302,0.305-0.302h0.423c0.168,0,0.305-0.138,0.305-0.307v-2.016
	C84.942,14.224,84.806,14.086,84.638,14.086z M80.995,25.163c0,1.314-0.583,1.813-1.51,1.813s-1.509-0.499-1.509-1.813V10.339
	c0-1.314,0.582-1.814,1.509-1.814s1.51,0.5,1.51,1.814V25.163z"/>
<path d="M105.719,14.086h-0.423c-0.168,0-0.305-0.136-0.305-0.303v-0.846h-0.002v-2.415c0-2.944-1.562-4.627-4.423-4.627
	s-4.423,1.683-4.423,4.627v3.26c-0.002,0.166-0.137,0.299-0.304,0.299h-0.424c-0.168,0-0.304,0.138-0.304,0.308v2.015
	c0,0.17,0.136,0.307,0.304,0.307h0.424c0.167,0,0.302,0.134,0.304,0.299v7.97c0,2.945,1.562,4.628,4.423,4.628
	s4.423-1.683,4.423-4.628v-0.742h0.002v-7.22c0-0.167,0.137-0.302,0.305-0.302h0.423c0.168,0,0.305-0.138,0.305-0.307v-2.016
	C106.023,14.224,105.887,14.086,105.719,14.086z M102.076,25.163c0,1.314-0.583,1.813-1.51,1.813s-1.509-0.499-1.509-1.813V10.339
	c0-1.314,0.582-1.814,1.509-1.814s1.51,0.5,1.51,1.814V25.163z"/>
<path d="M265.5,9.051h4.424c0.168,0,0.305-0.136,0.305-0.303V6.724c0-0.167-0.137-0.303-0.305-0.303h-7.337
	c-0.168,0-0.305,0.072-0.305,0.775v5.988l0,0v0.846c0,0.167-0.137,0.302-0.305,0.302h-0.423c-0.169,0-0.305,0.138-0.305,0.308v2.015
	c0,0.17,0.136,0.308,0.305,0.308h0.423c0.168,0,0.305,0.135,0.305,0.302v6.142l0,0v5.503c0,0.562,0.137,0.698,0.305,0.698h7.337
	c0.168,0,0.305-0.136,0.305-0.303v-2.024c0-0.167-0.137-0.303-0.305-0.303H265.5c-0.168,0-0.304-0.136-0.304-0.302v-9.409
	c0-0.166,0.136-0.302,0.304-0.302h3.391c0.168,0,0.305-0.135,0.305-0.302v-2.024c0-0.167-0.137-0.303-0.305-0.303H265.5
	c-0.168,0-0.304-0.136-0.304-0.302V9.353C265.196,9.186,265.332,9.051,265.5,9.051z"/>
<path d="M223.564,9.051h4.424c0.168,0,0.305-0.136,0.305-0.303V6.724c0-0.167-0.137-0.303-0.305-0.303h-7.337
	c-0.168,0-0.305,0.072-0.305,0.775v5.988l0,0v0.846c0,0.167-0.137,0.302-0.305,0.302h-0.423c-0.169,0-0.305,0.138-0.305,0.308v2.015
	c0,0.17,0.136,0.308,0.305,0.308h0.423c0.168,0,0.305,0.135,0.305,0.302v6.142l0,0v5.503c0,0.562,0.137,0.698,0.305,0.698h7.337
	c0.168,0,0.305-0.136,0.305-0.303v-2.024c0-0.167-0.137-0.303-0.305-0.303h-4.424c-0.168,0-0.304-0.136-0.304-0.302v-9.409
	c0-0.166,0.136-0.302,0.304-0.302h3.391c0.168,0,0.305-0.135,0.305-0.302v-2.024c0-0.167-0.137-0.303-0.305-0.303h-3.391
	c-0.168,0-0.304-0.136-0.304-0.302V9.353C223.261,9.186,223.396,9.051,223.564,9.051z"/>
<path d="M62.456,29.213c-0.16-0.552-0.178-1.119-0.178-1.842v-3.233c0-2.077-0.477-8.191-1.934-8.638v-0.053
	c1.298-0.525,1.907-1.735,1.907-3.628v-1.165c0-2.84-1.298-4.233-4.317-4.233h-4.013c-0.168,0-0.304,0.145-0.304,0.288v6.754l0,0
	v0.579c0,0.167-0.137,0.302-0.305,0.302H52.89c-0.168,0-0.304,0.138-0.304,0.308v2.015c0,0.17,0.136,0.307,0.304,0.307h0.424
	c0.168,0,0.305,0.136,0.305,0.303v0.283l0,0v10.832c0,1.08,0.136,1.216,0.304,1.216h2.305c0.169,0,0.305-0.136,0.305-0.303V17.274
	c0-0.167,0.136-0.302,0.304-0.302h0.702c1.325,0,1.828,5.298,1.828,7.007v3.365c0,1.264,0.075,1.668,0.194,2.047
	c0.04,0.127,0.157,0.215,0.291,0.215h2.315C62.372,29.606,62.513,29.409,62.456,29.213z M59.339,12.397
	c0,1.472-0.662,1.945-1.748,1.945h-0.756c-0.168,0-0.304-0.135-0.304-0.302V9.353c0-0.167,0.136-0.302,0.304-0.302h1.021
	c1.032,0,1.483,0.578,1.483,1.893V12.397z"/>
<circle fill="#EB6784" cx="79.487" cy="17.233" r="2.626"/>
<circle fill="#EB6784" cx="100.567" cy="17.233" r="2.627"/>
<circle fill="#EB6784" cx="244.708" cy="17.233" r="2.627"/>
<circle fill="#EB6784" cx="320.098" cy="17.233" r="2.627"/>
<path fill="#FFF100" d="M0.112,20.902c1.551-3.375,5.119-4.498,5.119-4.498c3.756-1.208,7.411-0.34,10.814,2.054
	c2.145,1.51,3.986,3.381,5.819,5.256c1.833,1.876,3.916,3.675,6.463,4.3c1.86,0.455,3.878,0.22,5.591-0.634
	c-3.156,5.433-9.035,9.086-15.77,9.086C8.987,36.466,1.405,29.707,0.112,20.902"/>
<g>
	<defs>
		<path id="SVGID_1_" d="M28.328,28.014c-2.547-0.625-4.63-2.424-6.463-4.3c-1.833-1.875-3.675-3.746-5.819-5.256
			c-3.403-2.394-7.059-3.262-10.814-2.054c0,0-3.568,1.123-5.119,4.498C0.067,20.591,0.03,20.277,0,19.962
			c1.403-3.588,5.062-4.92,5.062-4.92c3.78-1.402,7.551-0.681,11.133,1.611c2.258,1.444,4.223,3.271,6.178,5.104
			s4.163,3.576,6.791,4.099c2.045,0.406,4.236,0.005,6.01-1.089c-0.351,0.909-0.77,1.781-1.254,2.613
			c-1.139,0.567-2.41,0.861-3.682,0.861C29.595,28.241,28.953,28.166,28.328,28.014"/>
	</defs>
	<use xlink:href="#SVGID_1_"  overflow="visible" fill="#FFFFFF"/>
	<clipPath id="SVGID_2_">
		<use xlink:href="#SVGID_1_"  overflow="visible"/>
	</clipPath>
	<rect y="13.64" clip-path="url(#SVGID_2_)" fill="#FFFFFF" width="35.173" height="14.602"/>
</g>
<path fill="#37ABE3" d="M30.322,15.104c-2.034-0.471-3.837-1.636-5.502-2.896s-3.251-2.646-5.073-3.665
	c-3.221-1.8-7.119-2.351-10.713-1.512c-3.09,0.721-5.925,2.466-7.988,4.872C3.619,4.954,10.306,0,18.149,0
	c8.639,0,15.869,6.01,17.752,14.076c-1.064,0.847-2.443,1.228-3.828,1.228C31.483,15.304,30.892,15.235,30.322,15.104"/>
<path fill="#EC7088" d="M29.163,25.855c-2.628-0.522-4.836-2.267-6.791-4.099s-3.92-3.659-6.178-5.104
	c-3.582-2.292-7.353-3.014-11.133-1.611c0,0-3.658,1.332-5.062,4.92c-0.054-0.57-0.084-1.146-0.084-1.729
	c0-2.225,0.399-4.357,1.13-6.33C3.109,9.496,5.944,7.751,9.034,7.03c3.594-0.839,7.492-0.288,10.713,1.512
	c1.822,1.019,3.408,2.404,5.073,3.665s3.468,2.426,5.502,2.896c1.906,0.441,4.062,0.181,5.579-1.027
	c0.311,1.335,0.481,2.726,0.481,4.156c0,2.304-0.431,4.505-1.21,6.534c-1.319,0.812-2.869,1.244-4.418,1.244
	C30.221,26.011,29.687,25.96,29.163,25.855"/>
</svg>
